<svg id="b3e07e72-fcfb-43a4-842a-511ebb172105" data-name="Layer 1" xmlns="http://www.w3.org/2000/svg" viewBox="0 0 293 145.52"><defs><style>.b6690651-fd10-4d9b-b150-1dae1025ce6c{fill:#d3d4d5;}.a455bbbc-59e6-42de-88e8-a8d38df43fcd{opacity:0.5;}.a40761e6-6b62-4842-8a99-ef394579f770{fill:#cbccce;}.b9cb34f4-ad87-49cc-ad45-caf9140e4f04{fill:#d3d4d4;}.aaf6addb-7b96-4afe-b932-56fdeb594807,.af499ef6-67ea-4cb2-899b-282abea523b1,.bcd3793d-d6e9-4c0c-abd4-92a40312ac34,.f1f42ac1-842b-4008-b81c-70fe8fc63ca0{fill:none;}.be2f2abf-3816-4e23-ab6b-7c4eba7383ae{fill:#3b4550;}.b1bba6d7-5299-4f01-b4c2-7fdd37b13b48{fill:#6dbe4e;}.af499ef6-67ea-4cb2-899b-282abea523b1,.bcd3793d-d6e9-4c0c-abd4-92a40312ac34,.f1f42ac1-842b-4008-b81c-70fe8fc63ca0{stroke:#d3d4d5;stroke-width:0.5px;}.bcd3793d-d6e9-4c0c-abd4-92a40312ac34,.f1f42ac1-842b-4008-b81c-70fe8fc63ca0{stroke-linecap:square;stroke-miterlimit:10;}.f1f42ac1-842b-4008-b81c-70fe8fc63ca0{stroke-dasharray:0.86 1.72;}.af499ef6-67ea-4cb2-899b-282abea523b1{stroke-linecap:round;stroke-linejoin:round;stroke-dasharray:0.5 1;}</style></defs><title>creoicons</title><path class="b6690651-fd10-4d9b-b150-1dae1025ce6c" d="M113.89,30.94h0a.31.31,0,0,1,.31.31h0V34.8a.31.31,0,0,1-.31.31h0a.36.36,0,0,1-.36-.36V31.32a.36.36,0,0,1,.34-.38Z"/><path class="b6690651-fd10-4d9b-b150-1dae1025ce6c" d="M116,33.05h0a.31.31,0,0,1-.31.31H112.1a.31.31,0,0,1-.31-.31h0a.36.36,0,0,1,.36-.36h3.42a.36.36,0,0,1,.36.36Z"/><path class="b6690651-fd10-4d9b-b150-1dae1025ce6c" d="M132.55,48.15a1.72,1.72,0,1,1-1.72,1.71A1.72,1.72,0,0,1,132.55,48.15Zm0,2.8a1.08,1.08,0,1,0-1.08-1.09h0A1.08,1.08,0,0,0,132.55,51Z"/><path class="b6690651-fd10-4d9b-b150-1dae1025ce6c" d="M178.88,107.66h0a.31.31,0,0,1-.31-.31h0V103.8a.31.31,0,0,1,.31-.31h0a.36.36,0,0,1,.36.36v3.43a.37.37,0,0,1-.34.38Z"/><path class="b6690651-fd10-4d9b-b150-1dae1025ce6c" d="M176.82,105.55h0a.31.31,0,0,1,.31-.31h3.54a.31.31,0,0,1,.31.31h0a.36.36,0,0,1-.36.36H177.2a.36.36,0,0,1-.36-.36Z"/><g class="a455bbbc-59e6-42de-88e8-a8d38df43fcd"><rect class="a40761e6-6b62-4842-8a99-ef394579f770" x="89.34" y="128.57" width="110.51" height="2.18" rx="1.02"/></g><g class="a455bbbc-59e6-42de-88e8-a8d38df43fcd"><rect class="a40761e6-6b62-4842-8a99-ef394579f770" x="204.17" y="128.57" width="17.64" height="2.18" rx="1.02"/></g><g class="a455bbbc-59e6-42de-88e8-a8d38df43fcd"><rect class="a40761e6-6b62-4842-8a99-ef394579f770" x="78.45" y="134.34" width="30.11" height="2.18" rx="1.02"/></g><g class="a455bbbc-59e6-42de-88e8-a8d38df43fcd"><rect class="a40761e6-6b62-4842-8a99-ef394579f770" x="70.71" y="128.57" width="14.93" height="2.18" rx="1.02"/></g><path class="b9cb34f4-ad87-49cc-ad45-caf9140e4f04" d="M138.66,10.83h.06c1.17-.15,2.36-.26,3.54-.34a.52.52,0,0,0,.48-.54.54.54,0,0,0-.54-.48c-1.2.07-2.41.19-3.62.34a.55.55,0,0,0-.34.68.51.51,0,0,0,.41.35Z"/><path class="b9cb34f4-ad87-49cc-ad45-caf9140e4f04" d="M131.63,12.16h.13c1.15-.29,2.31-.53,3.47-.77a.53.53,0,0,0,.3-.7.56.56,0,0,0-.49-.34h0c-1.19.24-2.38.54-3.54.79a.54.54,0,1,0-.25,1,.51.51,0,0,0,.38,0Z"/><path class="b9cb34f4-ad87-49cc-ad45-caf9140e4f04" d="M145.81,10.37h.1c1.15,0,2.31,0,3.45.1h0a.51.51,0,0,0,.4-.63h0a.54.54,0,0,0-.36-.39h0c-1.16-.07-2.35-.1-3.52-.1h-.1a.53.53,0,0,0-.39.63v0a.54.54,0,0,0,.38.38Z"/><path class="b9cb34f4-ad87-49cc-ad45-caf9140e4f04" d="M124.8,14.38a.31.31,0,0,0,.19,0c1.07-.43,2.22-.84,3.34-1.2a.53.53,0,0,0,.17-.74.56.56,0,0,0-.49-.25h0c-1.14.37-2.29.79-3.41,1.23a.53.53,0,0,0-.22.72h0a.49.49,0,0,0,.42.28Z"/><path class="b9cb34f4-ad87-49cc-ad45-caf9140e4f04" d="M106.79,25.9a.5.5,0,0,0,.35-.14c.85-.81,1.74-1.61,2.64-2.37a.54.54,0,0,0,.21-.73.57.57,0,0,0-.58-.27.66.66,0,0,0-.23.17h-.06c-.92.77-1.82,1.58-2.68,2.41a.54.54,0,0,0,0,.73A.51.51,0,0,0,106.79,25.9Z"/><path class="b9cb34f4-ad87-49cc-ad45-caf9140e4f04" d="M118.33,17.44a.34.34,0,0,0,.24-.07c1-.57,2.07-1.11,3.16-1.61a.53.53,0,0,0,.11-.74.55.55,0,0,0-.55-.2h0c-1.07.54-2.14,1.07-3.22,1.64a.54.54,0,0,0-.13.75A.52.52,0,0,0,118.33,17.44Z"/><path class="b9cb34f4-ad87-49cc-ad45-caf9140e4f04" d="M152.87,10.79c1.17.15,2.35.33,3.51.54h.1a.52.52,0,0,0,.09-1c-1.18-.22-2.38-.41-3.57-.54a.55.55,0,0,0-.65.41.47.47,0,0,0,.52.62Z"/><path class="b9cb34f4-ad87-49cc-ad45-caf9140e4f04" d="M112.3,21.3a.47.47,0,0,0,.3-.1c1-.7,2-1.37,2.93-2a.53.53,0,0,0,.34-.66.54.54,0,0,0-.68-.34.76.76,0,0,0-.19.12h0c-1,.65-2,1.34-3,2a.53.53,0,0,0,0,.75h0a.5.5,0,0,0,.35.18Z"/><path class="b9cb34f4-ad87-49cc-ad45-caf9140e4f04" d="M102,31.18a.49.49,0,0,0,.4-.2c.74-.91,1.52-1.82,2.32-2.68a.55.55,0,0,0-.24-.72.55.55,0,0,0-.53,0c-.81.89-1.6,1.8-2.36,2.74a.55.55,0,0,0,.07.74h0A.49.49,0,0,0,102,31.18Z"/><path class="b9cb34f4-ad87-49cc-ad45-caf9140e4f04" d="M187,28.18a.53.53,0,0,0,.74-.14h0a.5.5,0,0,0,0-.55c-.82-.89-1.67-1.75-2.54-2.59a.52.52,0,0,0-.73,0,.51.51,0,0,0,0,.73h0v.05A30.9,30.9,0,0,1,187,28.18Z"/><path class="b9cb34f4-ad87-49cc-ad45-caf9140e4f04" d="M190.17,30.22a.55.55,0,0,0-.71-.28.53.53,0,0,0-.28.7h0a.58.58,0,0,0,.18.23h0c.31.38.6.76.9,1.15h1.3C191.09,31.41,190.64,30.81,190.17,30.22Z"/><path class="b9cb34f4-ad87-49cc-ad45-caf9140e4f04" d="M181.87,23.31a.5.5,0,0,0,.33.12.5.5,0,0,0,.41-.19.54.54,0,0,0-.07-.73h0c-.92-.76-1.88-1.51-2.86-2.22a.54.54,0,0,0-.71.26h0a.57.57,0,0,0,0,.54H179A34,34,0,0,1,181.87,23.31Z"/><path class="b9cb34f4-ad87-49cc-ad45-caf9140e4f04" d="M166.64,14.27c1.08.43,2.2.9,3.27,1.41a.46.46,0,0,0,.23.05.53.53,0,0,0,.49-.58.56.56,0,0,0-.26-.42c-1.08-.53-2.21-1-3.33-1.43a.54.54,0,0,0-.74.11h0a.54.54,0,0,0,.12.75.6.6,0,0,0,.25.1Z"/><path class="b9cb34f4-ad87-49cc-ad45-caf9140e4f04" d="M173.08,17.29c1,.57,2.07,1.18,3.07,1.81a.52.52,0,0,0,.55-.87c-1-.65-2.07-1.27-3.1-1.85a.56.56,0,0,0-.71.2h0A.55.55,0,0,0,173.08,17.29Z"/><path class="b9cb34f4-ad87-49cc-ad45-caf9140e4f04" d="M159.87,12.1c1.15.29,2.29.62,3.42,1h.16a.52.52,0,0,0,.15-1c-1.14-.37-2.3-.71-3.47-1a.54.54,0,0,0-.63.37.53.53,0,0,0,.34.65Z"/><rect class="aaf6addb-7b96-4afe-b932-56fdeb594807" x="19" y="1.76" width="255" height="142"/><path class="be2f2abf-3816-4e23-ab6b-7c4eba7383ae" d="M144.46,81.55a3.78,3.78,0,0,0,2.28-.73,4.17,4.17,0,0,0,1.46-1.88h2.17a6.16,6.16,0,0,1-2.25,3.2A6.86,6.86,0,0,1,144,83.38a6.26,6.26,0,0,1-4.82-2,7.64,7.64,0,0,1,0-9.85,6.26,6.26,0,0,1,4.82-2,6.85,6.85,0,0,1,4.09,1.23,6.15,6.15,0,0,1,2.25,3.21H148.2a4.2,4.2,0,0,0-1.46-1.89,3.78,3.78,0,0,0-2.28-.72,5.32,5.32,0,0,0-2.19.4,4.38,4.38,0,0,0-1.52,1.1,5.58,5.58,0,0,0,0,7.21A4.72,4.72,0,0,0,144.46,81.55Z"/><path class="be2f2abf-3816-4e23-ab6b-7c4eba7383ae" d="M159.86,69.5v2h-.25a4.3,4.3,0,0,0-3.54,1.75,6.26,6.26,0,0,0-1.3,4v5.92h-2V69.71h2V73a4.91,4.91,0,0,1,2.8-3.09,4.85,4.85,0,0,1,2.15-.43Z"/><path class="be2f2abf-3816-4e23-ab6b-7c4eba7383ae" d="M167.51,81.55a4.08,4.08,0,0,0,3.9-2.26h2.2a6.58,6.58,0,0,1-2.22,3,6.4,6.4,0,0,1-3.91,1.13,6.52,6.52,0,0,1-4.95-2,6.88,6.88,0,0,1-1.86-4.92,7.06,7.06,0,0,1,1.78-4.93,7,7,0,0,1,9.79,0A7.05,7.05,0,0,1,174,76.44v.8H162.75a4.88,4.88,0,0,0,1.47,3.07A4.6,4.6,0,0,0,167.51,81.55Zm-.17-10.22a4.47,4.47,0,0,0-3.12,1.15,4.86,4.86,0,0,0-1.45,2.88h9.15a4.81,4.81,0,0,0-1.46-2.88A4.44,4.44,0,0,0,167.34,71.33Z"/><path class="be2f2abf-3816-4e23-ab6b-7c4eba7383ae" d="M182.43,69.5a6.38,6.38,0,0,1,4.89,2,7.7,7.7,0,0,1,0,9.85,6.94,6.94,0,0,1-9.79,0,7.74,7.74,0,0,1,0-9.85A6.42,6.42,0,0,1,182.43,69.5Zm0,12A4.27,4.27,0,0,0,185.87,80a6,6,0,0,0,0-7.21,4.69,4.69,0,0,0-6.88,0A6,6,0,0,0,179,80,4.27,4.27,0,0,0,182.43,81.55Z"/><path class="be2f2abf-3816-4e23-ab6b-7c4eba7383ae" d="M192.91,70a2.14,2.14,0,0,1,.84.17,2.33,2.33,0,0,1,.68.46,2.14,2.14,0,0,1,.46.69,2.14,2.14,0,0,1,0,1.67,2,2,0,0,1-.46.68,2.14,2.14,0,0,1-1.52.63,2.09,2.09,0,0,1-.83-.17,2.15,2.15,0,0,1-.68-.46,2.18,2.18,0,0,1-.47-.68,2.26,2.26,0,0,1,0-1.67,2.2,2.2,0,0,1,1.15-1.15A2.09,2.09,0,0,1,192.91,70Zm0,4a1.79,1.79,0,0,0,1.31-.54,2,2,0,0,0,.39-.58,1.75,1.75,0,0,0,.14-.72,1.7,1.7,0,0,0-.14-.71,2,2,0,0,0-.39-.59,1.79,1.79,0,0,0-1.31-.54,1.75,1.75,0,0,0-1.3.54,1.79,1.79,0,0,0-.54,1.31,1.74,1.74,0,0,0,.15.71,1.65,1.65,0,0,0,.39.58A1.75,1.75,0,0,0,192.91,74ZM194,71.65a.6.6,0,0,1-.13.38.65.65,0,0,1-.34.23.63.63,0,0,1,.42.57,1.65,1.65,0,0,1,0,.21v.29h-.43V73.1a.93.93,0,0,0-.06-.39.43.43,0,0,0-.43-.25h-.61v.87H192V70.94h1a1.18,1.18,0,0,1,.75.19A.65.65,0,0,1,194,71.65Zm-1,.43a.73.73,0,0,0,.42-.1.31.31,0,0,0,.16-.28.35.35,0,0,0-.13-.29.74.74,0,0,0-.46-.1h-.54v.77Z"/><polygon class="be2f2abf-3816-4e23-ab6b-7c4eba7383ae" points="110.79 75.27 124.54 67.33 110.79 59.39 97.02 67.34 110.79 75.27"/><polygon class="be2f2abf-3816-4e23-ab6b-7c4eba7383ae" points="109.65 77.24 95.88 69.31 95.88 85.2 109.65 93.15 109.65 77.24"/><polygon class="b1bba6d7-5299-4f01-b4c2-7fdd37b13b48" points="111.92 77.24 111.92 93.15 125.69 85.2 125.69 69.29 111.92 77.24"/><polyline class="bcd3793d-d6e9-4c0c-abd4-92a40312ac34" points="180.42 55.32 180.42 55.82 179.92 55.82"/><line class="f1f42ac1-842b-4008-b81c-70fe8fc63ca0" x1="178.21" y1="55.82" x2="176.49" y2="55.82"/><polyline class="bcd3793d-d6e9-4c0c-abd4-92a40312ac34" points="175.63 55.82 175.13 55.82 175.13 55.32"/><line class="f1f42ac1-842b-4008-b81c-70fe8fc63ca0" x1="175.13" y1="53.6" x2="175.13" y2="51.88"/><polyline class="bcd3793d-d6e9-4c0c-abd4-92a40312ac34" points="175.13 51.03 175.13 50.53 175.63 50.53"/><line class="f1f42ac1-842b-4008-b81c-70fe8fc63ca0" x1="177.35" y1="50.53" x2="179.06" y2="50.53"/><polyline class="bcd3793d-d6e9-4c0c-abd4-92a40312ac34" points="179.92 50.53 180.42 50.53 180.42 51.03"/><line class="f1f42ac1-842b-4008-b81c-70fe8fc63ca0" x1="180.42" y1="52.74" x2="180.42" y2="54.46"/><polyline class="bcd3793d-d6e9-4c0c-abd4-92a40312ac34" points="127.19 110.68 127.19 111.18 126.69 111.18"/><line class="f1f42ac1-842b-4008-b81c-70fe8fc63ca0" x1="124.97" y1="111.18" x2="123.25" y2="111.18"/><polyline class="bcd3793d-d6e9-4c0c-abd4-92a40312ac34" points="122.39 111.18 121.89 111.18 121.89 110.68"/><line class="f1f42ac1-842b-4008-b81c-70fe8fc63ca0" x1="121.89" y1="108.96" x2="121.89" y2="107.24"/><polyline class="bcd3793d-d6e9-4c0c-abd4-92a40312ac34" points="121.89 106.39 121.89 105.89 122.39 105.89"/><line class="f1f42ac1-842b-4008-b81c-70fe8fc63ca0" x1="124.11" y1="105.89" x2="125.83" y2="105.89"/><polyline class="bcd3793d-d6e9-4c0c-abd4-92a40312ac34" points="126.69 105.89 127.19 105.89 127.19 106.39"/><line class="f1f42ac1-842b-4008-b81c-70fe8fc63ca0" x1="127.19" y1="108.1" x2="127.19" y2="109.82"/><circle class="af499ef6-67ea-4cb2-899b-282abea523b1" cx="147.58" cy="25.9" r="2.43"/><circle class="b6690651-fd10-4d9b-b150-1dae1025ce6c" cx="191.07" cy="102.37" r="1.4"/><circle class="b6690651-fd10-4d9b-b150-1dae1025ce6c" cx="147.58" cy="25.9" r="1.4"/><circle class="af499ef6-67ea-4cb2-899b-282abea523b1" cx="152.99" cy="96.44" r="2.61"/><rect class="b6690651-fd10-4d9b-b150-1dae1025ce6c" x="123.13" y="107.12" width="2.81" height="2.81"/><rect class="b6690651-fd10-4d9b-b150-1dae1025ce6c" x="173.45" y="36.14" width="2.81" height="2.81"/><rect class="b6690651-fd10-4d9b-b150-1dae1025ce6c" x="172.04" y="37.54" width="2.81" height="2.81"/></svg>