<svg xmlns="http://www.w3.org/2000/svg" xmlns:xlink="http://www.w3.org/1999/xlink" version="1.1" x="0px" y="0px" viewBox="0 0 92.149 282.73" style="enable-background:new 0 0 92.149 226.184;" xml:space="preserve"><g><ellipse transform="matrix(0.2268 -0.9739 0.9739 0.2268 13.7146 62.2754)" cx="46.078" cy="22.5" rx="22.495" ry="22.495"/><path d="M17.032,94.151c-0.736-2.964-1.033-5.602-1.029-7.915c0.017-4.931,1.298-8.68,3.029-11.582v14.863v10.736V130.7v83.12   c0,6.829,5.536,12.363,12.363,12.363c6.828,0,12.364-5.534,12.364-12.363v-78.273h4.636v78.273c0,6.829,5.536,12.363,12.363,12.363   c6.828,0,12.364-5.534,12.364-12.363v-83.123v-30.46V89.517V74.645c0.094,0.159,0.191,0.312,0.282,0.475   c1.578,2.856,2.733,6.43,2.742,11.116c0.004,2.306-0.291,4.935-1.023,7.888v34.001c12.195-16.055,17.01-30.011,17.024-41.889   c0.021-10.945-4.224-19.558-9.169-25.152c-2.481-2.824-5.111-4.957-7.667-6.496c-1.287-0.771-2.552-1.396-3.876-1.88   c-1.347-0.469-2.684-0.863-4.612-0.889c-0.03,0-0.06,0.004-0.09,0.004c-0.436-0.076-0.881-0.123-1.339-0.123H26.76   c-0.46,0-0.909,0.048-1.347,0.125c-0.028-0.001-0.056-0.005-0.084-0.005c-1.93,0.023-3.267,0.419-4.613,0.888   c-4.487,1.702-9.15,5.071-13.36,10.622C3.228,68.845-0.017,76.671,0,86.236c0.014,11.878,4.828,25.838,17.032,41.894V94.151z"/></g><text x="0" y="241.184" fill="#000000" font-size="5px" font-weight="bold" font-family="'Helvetica Neue', Helvetica, Arial-Unicode, Arial, Sans-serif">Created by Gan Khoon Lay</text><text x="0" y="246.184" fill="#000000" font-size="5px" font-weight="bold" font-family="'Helvetica Neue', Helvetica, Arial-Unicode, Arial, Sans-serif">from the Noun Project</text></svg>