<svg xmlns="http://www.w3.org/2000/svg" data-name="Layer 1" viewBox="0 0 100 125" x="0px" y="0px"><title>Artboard 5-toilet</title><path d="M61,46H39a6.36,6.36,0,0,0-6.12,6.56V64c0,10.11,7.7,18.34,17.16,18.34S67.16,74.1,67.16,64V52.56A6.36,6.36,0,0,0,61,46Zm4.12,18c0,9-6.8,16.34-15.16,16.34S34.84,73,34.84,64V52.56A4.36,4.36,0,0,1,39,48H61a4.36,4.36,0,0,1,4.12,4.56Z"/><path d="M71.06,41.38h0l-1-4.52a3.32,3.32,0,0,0-2.6-2.51l-4.23-.48c-2.82-.33-5.48-.55-8.13-.67a8.44,8.44,0,0,0-.94-.67,9.41,9.41,0,0,0-.95-.52,2.48,2.48,0,0,0,0-.27V29.21a2.23,2.23,0,0,0,1-1.86V24.57a1,1,0,0,0-1-1h-.06V15.65a2.31,2.31,0,0,0,1.06-1.92V13a1,1,0,0,0,1-1V8a1,1,0,0,0-1-1H45.61a1,1,0,0,0-1,1v4a1,1,0,0,0,.94,1h.06v.75a2.31,2.31,0,0,0,.67,1.63l.16.12v1.21H44.67a1,1,0,0,0-1,1v.71l-7.47-.74a1,1,0,0,0-1.1,1v1.64a1,1,0,0,0,.33.74,1,1,0,0,0,.67.26h.09l7.48-.69v.72a1,1,0,0,0,1,1h1.77v1.25a1,1,0,0,0-.83,1v2.78a2.23,2.23,0,0,0,1,1.86v2.52c0,.09,0,.18,0,.27a10.44,10.44,0,0,0-.94.52,8.69,8.69,0,0,0-.95.67c-2.6.13-5.22.35-8,.67l-4.23.49a3.3,3.3,0,0,0-2.6,2.5l-1,4.52h0a1,1,0,0,0,0,.29V67A21.15,21.15,0,0,0,41.28,86.24a4.11,4.11,0,0,1,2.18,2.24,7,7,0,0,0,13.08,0,4.11,4.11,0,0,1,2.18-2.24A21.15,21.15,0,0,0,71.1,67V41.67A1,1,0,0,0,71.06,41.38Zm-23.45-14V25.57h4.66v1.78a.23.23,0,0,1-.23.24h-4.2A.23.23,0,0,1,47.61,27.35Zm1,2.24h2.66v2.14a1.33,1.33,0,0,1-2.66,0ZM46.61,9h6.66v2a1,1,0,0,0-1,1v1.73A.27.27,0,0,1,52,14H47.74l-.05,0a.29.29,0,0,1-.08-.21v-1.7a1,1,0,0,0-1-1h0Zm-.94,11.36V18.72h1.77a1,1,0,0,0,1-1V16l2.77,0v7.35H48.44v-2a1,1,0,0,0-1-1Zm1.72,13.49a3.29,3.29,0,0,0,5.1,0,9.44,9.44,0,0,1,1.38.88,2.71,2.71,0,0,1-1.46,1.08c-1.31.42-4.64.53-6-.43a1,1,0,0,1-.45-.63A8.29,8.29,0,0,1,47.39,33.85ZM31.88,37.23s0-.06,0-.1c.08-.21.46-.75.85-.8L37,35.84c2.45-.28,4.78-.48,7.07-.6A3.1,3.1,0,0,0,45.27,37a8.25,8.25,0,0,0,4.58,1.11,11.37,11.37,0,0,0,3.18-.4,4.31,4.31,0,0,0,2.77-2.48c2.35.13,4.72.32,7.23.61l4.23.49c.39.05.77.59.85.8,0,0,0,.07,0,.1l.45,2h-.1l-4.23-.41a150.54,150.54,0,0,0-28.48,0l-4.23.41h-.1ZM69.1,67a19.14,19.14,0,0,1-11.21,17.4,6.07,6.07,0,0,0-3.22,3.35,5,5,0,0,1-9.34,0,6.07,6.07,0,0,0-3.22-3.35A19.14,19.14,0,0,1,30.9,67V41.82a1.3,1.3,0,0,1,.82-.58L36,40.83a149.88,149.88,0,0,1,28.1,0l4.23.41a1.3,1.3,0,0,1,.82.58Z"/><path d="M50,74.39a1.1,1.1,0,1,0,1.1,1.1A1.1,1.1,0,0,0,50,74.39Z"/><circle cx="47" cy="72.95" r="1.1"/><circle cx="53" cy="72.95" r="1.1"/><path d="M50,69.54a1.1,1.1,0,1,0,1.1,1.1A1.1,1.1,0,0,0,50,69.54Z"/><text x="0" y="115" fill="#000000" font-size="5px" font-weight="bold" font-family="'Helvetica Neue', Helvetica, Arial-Unicode, Arial, Sans-serif">Created by frederick allen</text><text x="0" y="120" fill="#000000" font-size="5px" font-weight="bold" font-family="'Helvetica Neue', Helvetica, Arial-Unicode, Arial, Sans-serif">from the Noun Project</text></svg>